<svg xmlns="http://www.w3.org/2000/svg" viewBox="0 9.399999618530273 691.5999755859375 36.349998474121094" data-asc="0.9" width="691.5999755859375" height="36.349998474121094"><defs/><g fill="#000000"><g transform="translate(0, 0)"><path d="M0 45L0 10.20L12.95 10.20Q16.75 10.20 19.98 12.10Q23.20 14 25.10 17.22Q27 20.45 27 24.25L27 30.95Q27 34.75 25.10 37.98Q23.20 41.20 19.98 43.10Q16.75 45 12.95 45L0 45ZM49.50 9.45Q53.40 9.45 56.70 11.38Q60 13.30 61.92 16.60Q63.85 19.90 63.85 23.80L63.85 31.40Q63.85 35.30 61.92 38.60Q60 41.90 56.70 43.83Q53.40 45.75 49.50 45.75Q45.60 45.75 42.30 43.83Q39 41.90 37.08 38.60Q35.15 35.30 35.15 31.40L35.15 23.80Q35.15 19.90 37.08 16.60Q39 13.30 42.30 11.38Q45.60 9.45 49.50 9.45M37 31.40Q37 34.80 38.67 37.67Q40.35 40.55 43.23 42.23Q46.10 43.90 49.50 43.90Q52.90 43.90 55.78 42.23Q58.65 40.55 60.33 37.67Q62 34.80 62 31.40L62 23.80Q62 20.40 60.33 17.52Q58.65 14.65 55.78 12.98Q52.90 11.30 49.50 11.30Q46.10 11.30 43.23 12.98Q40.35 14.65 38.67 17.52Q37 20.40 37 23.80L37 31.40ZM74.30 45L72.45 45L72.45 10.20L74.45 10.20L86.60 31.65L98.70 10.20L100.55 10.20L100.55 45L98.70 45L98.70 13.90L87.45 33.75L85.70 33.75L74.30 13.65L74.30 45ZM122.55 10.20L124.50 10.20L138.80 45L136.80 45L132.10 33.50L114.95 33.50L110.20 45L108.25 45L122.55 10.20M115.70 31.70L131.35 31.70L123.50 12.60L115.70 31.70ZM171.80 10.20L171.80 12.05L161.40 12.05L161.40 43.15L171.80 43.15L171.80 45L149.25 45L149.25 43.15L159.60 43.15L159.60 12.05L149.25 12.05L149.25 10.20L171.80 10.20ZM183.90 45L183.90 10.20L185.85 10.20L210.15 33.80L210.15 10.20L212 10.20L212 45L210.15 45L210.15 36.40L185.75 12.60L185.75 45L183.90 45ZM225.90 28.65L225.90 26.80L243.10 26.80L243.10 28.65L225.90 28.65ZM285.30 10.20L285.30 12.05L261.35 12.05L261.35 23.20L280.55 23.20L280.55 32L261.35 32L261.35 45L259.50 45L259.50 10.20L285.30 10.20ZM319.80 10.20L319.80 12.05L309.40 12.05L309.40 43.15L319.80 43.15L319.80 45L297.25 45L297.25 43.15L307.60 43.15L307.60 12.05L297.25 12.05L297.25 10.20L319.80 10.20ZM353.05 11.35Q356.05 12.75 357.77 15.50Q359.50 18.25 359.50 21.60Q359.50 25.50 357.13 28.57Q354.75 31.65 351.05 32.65L359.90 45L357.70 45L349.15 33L347.55 33.05L335 33.05L335 45L333.15 45L333.15 10.20L346.40 10.20Q348.60 10.20 350.18 10.48Q351.75 10.75 353.05 11.35M348.05 31.20Q350.65 31.20 352.85 29.90Q355.05 28.60 356.35 26.40Q357.65 24.20 357.65 21.60Q357.65 18.70 356.13 16.35Q354.60 14 351.90 12.85Q349.95 12.05 346.40 12.05L335 12.05L335 31.20L348.05 31.20ZM383.25 28.35Q379 27.50 376.32 26.47Q373.65 25.45 372.13 23.67Q370.60 21.90 370.60 19.10Q370.60 16.20 372.13 14Q373.65 11.80 376.43 10.60Q379.20 9.40 382.85 9.40Q386.35 9.40 389.27 10.88Q392.20 12.35 393.90 15Q395.60 17.65 395.60 21.05L393.75 21.05Q393.75 18.10 392.30 15.85Q390.85 13.60 388.35 12.38Q385.85 11.15 382.80 11.15Q380.10 11.15 377.75 12Q375.40 12.85 373.93 14.60Q372.45 16.35 372.45 19Q372.45 21.40 373.85 22.82Q375.25 24.25 377.50 25Q379.75 25.75 383.80 26.60Q387.90 27.45 390.18 28.22Q392.45 29 394.02 30.80Q395.60 32.60 395.60 35.85Q395.60 39.10 393.88 41.33Q392.15 43.55 389.30 44.65Q386.45 45.75 383.10 45.75Q378.95 45.75 375.80 44.20Q372.65 42.65 370.98 39.83Q369.30 37 369.30 33.35L371.15 33.35Q371.15 36.55 372.57 38.95Q374 41.35 376.70 42.67Q379.40 44 383.10 44Q387.70 44 390.73 41.80Q393.75 39.60 393.75 35.80Q393.75 33.20 392.45 31.80Q391.15 30.40 389.18 29.77Q387.20 29.15 383.25 28.35ZM433.55 10.20L433.55 12.05L420.40 12.05L420.40 45L418.60 45L418.60 12.05L405.45 12.05L405.45 10.20L433.55 10.20ZM481 10.20L506.35 10.20L506.35 19L490.10 19L490.10 23.40L503.60 23.40L503.60 31.75L490.10 31.75L490.10 36.20L506.35 36.20L506.35 45L481 45L481 10.20ZM538.05 11.35Q541.05 12.75 542.77 15.50Q544.50 18.25 544.50 21.60Q544.50 25.50 542.13 28.57Q539.75 31.65 536.05 32.65L544.90 45L542.70 45L534.15 33L532.55 33.05L520 33.05L520 45L518.15 45L518.15 10.20L531.40 10.20Q533.60 10.20 535.17 10.48Q536.75 10.75 538.05 11.35M533.05 31.20Q535.65 31.20 537.85 29.90Q540.05 28.60 541.35 26.40Q542.65 24.20 542.65 21.60Q542.65 18.70 541.13 16.35Q539.60 14 536.90 12.85Q534.95 12.05 531.40 12.05L520 12.05L520 31.20L533.05 31.20ZM575.05 11.35Q578.05 12.75 579.77 15.50Q581.50 18.25 581.50 21.60Q581.50 25.50 579.13 28.57Q576.75 31.65 573.05 32.65L581.90 45L579.70 45L571.15 33L569.55 33.05L557 33.05L557 45L555.15 45L555.15 10.20L568.40 10.20Q570.60 10.20 572.17 10.48Q573.75 10.75 575.05 11.35M570.05 31.20Q572.65 31.20 574.85 29.90Q577.05 28.60 578.35 26.40Q579.65 24.20 579.65 21.60Q579.65 18.70 578.13 16.35Q576.60 14 573.90 12.85Q571.95 12.05 568.40 12.05L557 12.05L557 31.20L570.05 31.20ZM604.50 9.45Q608.40 9.45 611.70 11.38Q615 13.30 616.92 16.60Q618.85 19.90 618.85 23.80L618.85 31.40Q618.85 35.30 616.92 38.60Q615 41.90 611.70 43.83Q608.40 45.75 604.50 45.75Q600.60 45.75 597.30 43.83Q594 41.90 592.08 38.60Q590.15 35.30 590.15 31.40L590.15 23.80Q590.15 19.90 592.08 16.60Q594 13.30 597.30 11.38Q600.60 9.45 604.50 9.45M592 31.40Q592 34.80 593.67 37.67Q595.35 40.55 598.23 42.23Q601.10 43.90 604.50 43.90Q607.90 43.90 610.77 42.23Q613.65 40.55 615.33 37.67Q617 34.80 617 31.40L617 23.80Q617 20.40 615.33 17.52Q613.65 14.65 610.77 12.98Q607.90 11.30 604.50 11.30Q601.10 11.30 598.23 12.98Q595.35 14.65 593.67 17.52Q592 20.40 592 23.80L592 31.40ZM649.05 11.35Q652.05 12.75 653.77 15.50Q655.50 18.25 655.50 21.60Q655.50 25.50 653.13 28.57Q650.75 31.65 647.05 32.65L655.90 45L653.70 45L645.15 33L643.55 33.05L631 33.05L631 45L629.15 45L629.15 10.20L642.40 10.20Q644.60 10.20 646.17 10.48Q647.75 10.75 649.05 11.35M644.05 31.20Q646.65 31.20 648.85 29.90Q651.05 28.60 652.35 26.40Q653.65 24.20 653.65 21.60Q653.65 18.70 652.13 16.35Q650.60 14 647.90 12.85Q645.95 12.05 642.40 12.05L631 12.05L631 31.20L644.05 31.20ZM679.25 28.35Q675 27.50 672.33 26.47Q669.65 25.45 668.13 23.67Q666.60 21.90 666.60 19.10Q666.60 16.20 668.13 14Q669.65 11.80 672.42 10.60Q675.20 9.40 678.85 9.40Q682.35 9.40 685.27 10.88Q688.20 12.35 689.90 15Q691.60 17.65 691.60 21.05L689.75 21.05Q689.75 18.10 688.30 15.85Q686.85 13.60 684.35 12.38Q681.85 11.15 678.80 11.15Q676.10 11.15 673.75 12Q671.40 12.85 669.92 14.60Q668.45 16.35 668.45 19Q668.45 21.40 669.85 22.82Q671.25 24.25 673.50 25Q675.75 25.75 679.80 26.60Q683.90 27.45 686.17 28.22Q688.45 29 690.02 30.80Q691.60 32.60 691.60 35.85Q691.60 39.10 689.88 41.33Q688.15 43.55 685.30 44.65Q682.45 45.75 679.10 45.75Q674.95 45.75 671.80 44.20Q668.65 42.65 666.98 39.83Q665.30 37 665.30 33.35L667.15 33.35Q667.15 36.55 668.58 38.95Q670 41.35 672.70 42.67Q675.40 44 679.10 44Q683.70 44 686.73 41.80Q689.75 39.60 689.75 35.80Q689.75 33.20 688.45 31.80Q687.15 30.40 685.17 29.77Q683.20 29.15 679.25 28.35Z"/></g></g></svg>
